REM DIRINDEX 1\2\4,1\2\5,1\2\6,1\2\7,1\3\8,1\3\9
REM DIRNAME cjc037,folder01,folder02,folder03,folder04,folder05,folder06,folder07,folder08
TITLE ""
FILE "Disc2Track16.mp3" MP3
  TRACK 01 AUDIO
    TITLE "0:"
    INDEX 01 00:00:00
  TRACK 02 AUDIO
    TITLE "8:cjc037_1423"
    INDEX 01 00:00:05
  TRACK 03 AUDIO
    TITLE "0:"
    INDEX 01 00:01:52
  TRACK 04 AUDIO
    TITLE "9:cjc037_1424"
    INDEX 01 00:01:54
  TRACK 05 AUDIO
    TITLE "0:"
    INDEX 01 00:03:74
  TRACK 06 AUDIO
    TITLE "8:cjc037_1425"
    INDEX 01 00:06:31
  TRACK 07 AUDIO
    TITLE "0:"
    INDEX 01 00:08:01
  TRACK 08 AUDIO
    TITLE "9:cjc037_1426"
    INDEX 01 00:08:05
  TRACK 09 AUDIO
    TITLE "0:"
    INDEX 01 00:10:61
  TRACK 10 AUDIO
    TITLE "8:cjc037_1427"
    INDEX 01 00:13:24
  TRACK 11 AUDIO
    TITLE "0:"
    INDEX 01 00:14:68
  TRACK 12 AUDIO
    TITLE "9:cjc037_1428"
    INDEX 01 00:14:74
  TRACK 13 AUDIO
    TITLE "0:"
    INDEX 01 00:17:00
  TRACK 14 AUDIO
    TITLE "8:cjc037_1429"
    INDEX 01 00:19:30
  TRACK 15 AUDIO
    TITLE "0:"
    INDEX 01 00:21:02
  TRACK 16 AUDIO
    TITLE "9:cjc037_1430"
    INDEX 01 00:21:08
  TRACK 17 AUDIO
    TITLE "0:"
    INDEX 01 00:23:69
  TRACK 18 AUDIO
    TITLE "8:cjc037_1431"
    INDEX 01 00:26:28
  TRACK 19 AUDIO
    TITLE "0:"
    INDEX 01 00:27:73
  TRACK 20 AUDIO
    TITLE "9:cjc037_1432"
    INDEX 01 00:28:04
  TRACK 21 AUDIO
    TITLE "0:"
    INDEX 01 00:31:29
  TRACK 22 AUDIO
    TITLE "8:cjc037_1433"
    INDEX 01 00:33:64
  TRACK 23 AUDIO
    TITLE "0:"
    INDEX 01 00:35:39
  TRACK 24 AUDIO
    TITLE "9:cjc037_1434"
    INDEX 01 00:35:43
  TRACK 25 AUDIO
    TITLE "0:"
    INDEX 01 00:38:22
  TRACK 26 AUDIO
    TITLE "8:cjc037_1435"
    INDEX 01 00:40:58
  TRACK 27 AUDIO
    TITLE "0:"
    INDEX 01 00:42:35
  TRACK 28 AUDIO
    TITLE "9:cjc037_1436"
    INDEX 01 00:42:41
  TRACK 29 AUDIO
    TITLE "0:"
    INDEX 01 00:44:71
  TRACK 30 AUDIO
    TITLE "8:cjc037_1437"
    INDEX 01 00:47:30
  TRACK 31 AUDIO
    TITLE "0:"
    INDEX 01 00:49:06
  TRACK 32 AUDIO
    TITLE "9:cjc037_1438"
    INDEX 01 00:49:10
  TRACK 33 AUDIO
    TITLE "0:"
    INDEX 01 00:50:56
  TRACK 34 AUDIO
    TITLE "8:cjc037_1439"
    INDEX 01 00:53:15
  TRACK 35 AUDIO
    TITLE "0:"
    INDEX 01 00:54:60
  TRACK 36 AUDIO
    TITLE "9:cjc037_1440"
    INDEX 01 00:54:64
  TRACK 37 AUDIO
    TITLE "0:"
    INDEX 01 00:57:35
  TRACK 38 AUDIO
    TITLE "8:cjc037_1441"
    INDEX 01 00:59:67
  TRACK 39 AUDIO
    TITLE "0:"
    INDEX 01 01:01:38
  TRACK 40 AUDIO
    TITLE "9:cjc037_1442"
    INDEX 01 01:01:46
  TRACK 41 AUDIO
    TITLE "0:"
    INDEX 01 01:03:71
  TRACK 42 AUDIO
    TITLE "8:cjc037_1443"
    INDEX 01 01:06:30
  TRACK 43 AUDIO
    TITLE "0:"
    INDEX 01 01:08:03
  TRACK 44 AUDIO
    TITLE "9:cjc037_1444"
    INDEX 01 01:08:07
  TRACK 45 AUDIO
    TITLE "0:"
    INDEX 01 01:11:07
  TRACK 46 AUDIO
    TITLE "8:cjc037_1445"
    INDEX 01 01:13:42
  TRACK 47 AUDIO
    TITLE "0:"
    INDEX 01 01:15:11
  TRACK 48 AUDIO
    TITLE "9:cjc037_1446"
    INDEX 01 01:15:15
  TRACK 49 AUDIO
    TITLE "0:"
    INDEX 01 01:18:43
  TRACK 50 AUDIO
    TITLE "8:cjc037_1447"
    INDEX 01 01:21:02
  TRACK 51 AUDIO
    TITLE "0:"
    INDEX 01 01:22:44
  TRACK 52 AUDIO
    TITLE "9:cjc037_1448"
    INDEX 01 01:22:48
  TRACK 53 AUDIO
    TITLE "0:"
    INDEX 01 01:24:61
  TRACK 54 AUDIO
    TITLE "8:cjc037_1449"
    INDEX 01 01:27:20
  TRACK 55 AUDIO
    TITLE "0:"
    INDEX 01 01:28:63
  TRACK 56 AUDIO
    TITLE "9:cjc037_1450"
    INDEX 01 01:28:67
  TRACK 57 AUDIO
    TITLE "0:"
    INDEX 01 01:31:59
  TRACK 58 AUDIO
    TITLE "8:cjc037_1451"
    INDEX 01 01:34:20
  TRACK 59 AUDIO
    TITLE "0:"
    INDEX 01 01:35:65
  TRACK 60 AUDIO
    TITLE "9:cjc037_1452"
    INDEX 01 01:35:67
  TRACK 61 AUDIO
    TITLE "0:"
    INDEX 01 01:39:12
